<?xml version="1.0" encoding="utf-8"?>
<!-- Generator: Adobe Illustrator 19.2.0, SVG Export Plug-In . SVG Version: 6.00 Build 0)  -->
<svg version="1.1" id="Capa_1" xmlns="http://www.w3.org/2000/svg" xmlns:xlink="http://www.w3.org/1999/xlink" x="0px" y="0px"
	 viewBox="0 0 512 512" style="enable-background:new 0 0 512 512;" xml:space="preserve">
<style type="text/css">
	.st0{fill:#556068;}
</style>
<g>
	<g>
		<rect x="117.3" y="64" class="st0" width="106.7" height="21.3"/>
	</g>
</g>
<g>
	<g>
		<rect x="117.3" y="106.7" class="st0" width="21.3" height="21.3"/>
	</g>
</g>
<g>
	<g>
		<rect x="160" y="106.7" class="st0" width="21.3" height="21.3"/>
	</g>
</g>
<g>
	<g>
		<path class="st0" d="M455.5,88.5L370.2,3.1c-2-2-4.7-3.1-7.5-3.1H85.3c-17.7,0-32,14.3-32,32v448c0,17.7,14.3,32,32,32h341.3
			c17.7,0,32-14.3,32-32V96C458.7,93.2,457.5,90.5,455.5,88.5z M437.3,480c0,5.9-4.8,10.7-10.7,10.7H85.3c-5.9,0-10.7-4.8-10.7-10.7
			V32c0-5.9,4.8-10.7,10.7-10.7h272.9l79.1,79.1L437.3,480L437.3,480z"/>
	</g>
</g>
<g>
	<g>
		<path class="st0" d="M384,85.3c-5.9,0-10.7-4.8-10.7-10.7v-64H352v64c0,17.7,14.3,32,32,32h21.3V85.3H384z"/>
	</g>
</g>
<g>
	<g>
		<rect x="373.3" y="362.7" class="st0" width="21.3" height="21.3"/>
	</g>
</g>
<g>
	<g>
		<rect x="330.7" y="362.7" class="st0" width="21.3" height="21.3"/>
	</g>
</g>
<g>
	<g>
		<rect x="117.3" y="362.7" class="st0" width="170.7" height="21.3"/>
	</g>
</g>
<g>
	<g>
		<rect x="117.3" y="416" class="st0" width="277.3" height="21.3"/>
	</g>
</g>
<g>
	<g>
		<path class="st0" d="M373.3,160H138.7c-11.8,0-21.3,9.6-21.3,21.3v128c0,11.8,9.6,21.3,21.3,21.3h234.7c11.8,0,21.3-9.6,21.3-21.3
			v-128C394.7,169.6,385.1,160,373.3,160z M373.3,309.3H138.7v-128h234.7L373.3,309.3L373.3,309.3z"/>
	</g>
</g>
</svg>
