<?xml version="1.0" encoding="utf-8"?>
<!-- Generator: Adobe Illustrator 19.2.0, SVG Export Plug-In . SVG Version: 6.00 Build 0)  -->
<svg version="1.1" id="Capa_1" xmlns="http://www.w3.org/2000/svg" xmlns:xlink="http://www.w3.org/1999/xlink" x="0px" y="0px"
	 viewBox="0 0 512 512" style="enable-background:new 0 0 512 512;" xml:space="preserve">
<style type="text/css">
	.st0{fill:#556068;}
</style>
<g>
	<g>
		<rect x="117.3" y="64" class="st0" width="106.7" height="21.3"/>
	</g>
</g>
<g>
	<g>
		<rect x="117.3" y="106.7" class="st0" width="21.3" height="21.3"/>
	</g>
</g>
<g>
	<g>
		<rect x="160" y="106.7" class="st0" width="21.3" height="21.3"/>
	</g>
</g>
<g>
	<g>
		<path class="st0" d="M455.5,88.5L370.2,3.1c-2-2-4.7-3.1-7.5-3.1H85.3c-17.7,0-32,14.3-32,32v448c0,17.7,14.3,32,32,32h341.3
			c17.7,0,32-14.3,32-32V96C458.7,93.2,457.5,90.5,455.5,88.5z M437.3,480c0,5.9-4.8,10.7-10.7,10.7H85.3c-5.9,0-10.7-4.8-10.7-10.7
			V32c0-5.9,4.8-10.7,10.7-10.7h272.9l79.1,79.1V480z"/>
	</g>
</g>
<g>
	<g>
		<path class="st0" d="M384,85.3c-5.9,0-10.7-4.8-10.7-10.7v-64H352v64c0,17.7,14.3,32,32,32h21.3V85.3H384z"/>
	</g>
</g>
<g>
	<g>
		<path class="st0" d="M210.2,173.8c-4.2-4.2-10.9-4.2-15.1,0l-64,64l15.1,15.1l45.8-45.8V224c0,5.9-4.8,10.7-10.7,10.7V256
			c17.7,0,32-14.3,32-32v-42.7C213.3,178.5,212.2,175.8,210.2,173.8z"/>
	</g>
</g>
<g>
	<g>
		<path class="st0" d="M352,170.7H202.7c-2.8,0-5.5,1.1-7.5,3.1l-64,64c-2,2-3.1,4.7-3.1,7.5V416c0,17.7,14.3,32,32,32h192
			c17.7,0,32-14.3,32-32V202.7C384,185,369.7,170.7,352,170.7z M362.7,416c0,5.9-4.8,10.7-10.7,10.7H160c-5.9,0-10.7-4.8-10.7-10.7
			V249.7l57.7-57.7H352c5.9,0,10.7,4.8,10.7,10.7V416z"/>
	</g>
</g>
<g>
	<g>
		<rect x="192" y="309.3" class="st0" width="128" height="21.3"/>
	</g>
</g>
<g>
	<g>
		<rect x="192" y="362.7" class="st0" width="128" height="21.3"/>
	</g>
</g>
<g>
	<g>
		<rect x="266.7" y="256" class="st0" width="53.3" height="21.3"/>
	</g>
</g>
</svg>
