<?xml version="1.0" encoding="utf-8"?>
<!-- Generator: Adobe Illustrator 19.2.0, SVG Export Plug-In . SVG Version: 6.00 Build 0)  -->
<svg version="1.1" id="Capa_1" xmlns="http://www.w3.org/2000/svg" xmlns:xlink="http://www.w3.org/1999/xlink" x="0px" y="0px"
	 viewBox="0 0 512 512" style="enable-background:new 0 0 512 512;" xml:space="preserve">
<style type="text/css">
	.st0{fill:#556068;}
	.st1{fill:none;}
</style>
<g>
	<g>
		<path class="st0" d="M320,416v-21.3h-21.3v32c0,5.9,4.8,10.7,10.7,10.7h32V416H320z"/>
	</g>
</g>
<g>
	<g>
		<path class="st0" d="M341.2,150.9H170.6c-5.9,0-10.7,4.8-10.7,10.7v149.3c0,4.1,2.3,7.8,6,9.6l74.2,36.3c4.9,2.8,10.4,4.3,16,4.3
			l0,0c5.3,0,10.5-1.3,15.1-3.9l74.8-36.6c3.7-1.8,6-5.5,6-9.6V161.6C352,155.7,347.2,150.9,341.2,150.9z M330.7,304.3l-69.4,34
			c-3.5,1.9-7.8,1.8-11.2-0.3l-68.8-33.7v-132h149.3L330.7,304.3L330.7,304.3z"/>
	</g>
</g>
<g>
	<g>
		<path class="st0" d="M296.6,207.4l-56.5,56.5l-24.5-24.5l-15.1,15.1l32,32c2,2,4.7,3.1,7.5,3.1s5.5-1.1,7.5-3.1l64-64L296.6,207.4
			z"/>
	</g>
</g>
<g>
	<g>
		<path class="st0" d="M130.3,414c-5.9,0-10.7-4.8-10.7-10.7V382H98.3v21.3c0,17.7,14.3,32,32,32h64V414H130.3z"/>
	</g>
</g>
<g>
	<g>
		<g>
			<path class="st0" d="M96.3,74.7V96h21.3V74.7c0-5.9,4.8-10.7,10.7-10.7h21.3V42.7h-21.3C110.6,42.7,96.3,57,96.3,74.7z"/>
		</g>
	</g>
	<g>
		<g>
			<rect x="171" y="42.7" class="st0" width="21.3" height="21.3"/>
		</g>
	</g>
</g>
<polygon class="st1" points="486.3,264.2 471.8,249.7 458.6,262.9 458.6,291.9 "/>
<path class="st1" d="M338.8,437.3c-2.8,0-5.5-1.1-7.5-3.1l-29.5-29.5c-4.2-4.2-4.2-10.9,0-15.1l135.5-135.5V100.4l-64-64v38.2
	c0,5.9,4.8,10.7,10.7,10.7h21.3v21.3H384c-17.7,0-32-14.3-32-32V21.3H85.3c-5.9,0-10.7,4.8-10.7,10.7v448c0,5.9,4.8,10.7,10.7,10.7
	h341.3c5.9,0,10.7-4.8,10.7-10.7V343.2l-91,91C344.3,436.2,341.6,437.3,338.8,437.3z"/>
<polygon class="st1" points="324.4,397.1 338.9,411.6 437.3,313.2 437.3,284.2 "/>
<path class="st0" d="M324.4,397.1l112.9-112.9v-30L301.8,389.6c-4.2,4.2-4.2,10.9,0,15.1l29.5,29.5c2,2,4.7,3.1,7.5,3.1
	s5.5-1.1,7.5-3.1l91-91v-30l-98.4,98.4L324.4,397.1z"/>
<path class="st0" d="M508.9,256.7l-29.5-29.5c-4.2-4.2-10.9-4.2-15.1,0l-5.7,5.6v30l13.2-13.2l14.5,14.5l-27.7,27.7v30l50.2-50.2
	C513,267.6,513,260.8,508.9,256.7z"/>
<path class="st0" d="M437.3,480c0,5.9-4.8,10.7-10.7,10.7H85.3c-5.9,0-10.7-4.8-10.7-10.7V32c0-5.9,4.8-10.7,10.7-10.7H352V10.6
	h21.3v25.8l64,64v153.7l21.3-21.3V96c0.1-2.8-1.1-5.5-3.1-7.5L370.2,3.1c-2-2-4.7-3.1-7.5-3.1H85.3c-17.7,0-32,14.3-32,32v448
	c0,17.7,14.3,32,32,32h341.3c17.7,0,32-14.3,32-32V321.9l-21.3,21.3V480z"/>
<polygon class="st0" points="437.3,284.2 458.6,262.9 458.6,232.8 437.3,254.1 "/>
<polygon class="st0" points="437.3,313.2 437.3,343.2 458.6,321.9 458.6,291.9 "/>
<path class="st0" d="M384,106.6h21.3V85.3H384c-5.9,0-10.7-4.8-10.7-10.7V36.4l-15.1-15.1H352v53.3C352,92.3,366.3,106.6,384,106.6z
	"/>
<polygon class="st0" points="373.3,36.4 373.3,10.6 352,10.6 352,21.3 358.2,21.3 "/>
</svg>
