<?xml version="1.0" encoding="utf-8"?>
<!-- Generator: Adobe Illustrator 19.2.0, SVG Export Plug-In . SVG Version: 6.00 Build 0)  -->
<svg version="1.1" id="Capa_1" xmlns="http://www.w3.org/2000/svg" xmlns:xlink="http://www.w3.org/1999/xlink" x="0px" y="0px"
	 viewBox="0 0 512 512" style="enable-background:new 0 0 512 512;" xml:space="preserve">
<style type="text/css">
	.st0{fill:#556068;}
</style>
<g>
	<g>
		<rect x="117.3" y="64" class="st0" width="106.7" height="21.3"/>
	</g>
</g>
<g>
	<g>
		<rect x="117.3" y="106.7" class="st0" width="21.3" height="21.3"/>
	</g>
</g>
<g>
	<g>
		<rect x="160" y="106.7" class="st0" width="21.3" height="21.3"/>
	</g>
</g>
<g>
	<g>
		<path class="st0" d="M455.5,88.5L370.2,3.1c-2-2-4.7-3.1-7.5-3.1H85.3c-17.7,0-32,14.3-32,32v448c0,17.7,14.3,32,32,32h341.3
			c17.7,0,32-14.3,32-32V96C458.7,93.2,457.5,90.5,455.5,88.5z M437.3,480c0,5.9-4.8,10.7-10.7,10.7H85.3c-5.9,0-10.7-4.8-10.7-10.7
			V32c0-5.9,4.8-10.7,10.7-10.7h272.9l79.1,79.1L437.3,480L437.3,480z"/>
	</g>
</g>
<g>
	<g>
		<path class="st0" d="M384,85.3c-5.9,0-10.7-4.8-10.7-10.7v-64H352v64c0,17.7,14.3,32,32,32h21.3V85.3H384z"/>
	</g>
</g>
<g>
	<g>
		<rect x="117.3" y="416" class="st0" width="277.3" height="21.3"/>
	</g>
</g>
<g>
	<g>
		<g>
			<path class="st0" d="M228.2,261.8c-3.3-3.1-8.5-3.1-11.8,0l-66.5,66.6l11.8,11.8l60.6-60.6l52.8,52.8l11.8-11.8L228.2,261.8z"/>
		</g>
	</g>
	<g>
		<g>
			<path class="st0" d="M303.7,253.7c-3.3-3.3-8.5-3.3-11.8,0l-25.1,25.1l11.8,11.8l19.2-19.2l52.4,52.4L362,312L303.7,253.7z"/>
		</g>
	</g>
	<g>
		<g>
			<path class="st0" d="M339.5,184.5h-33.4v16.7h33.4c4.6,0,8.4,3.7,8.4,8.4v133.6c0,4.6-3.7,8.4-8.4,8.4h-167
				c-4.6,0-8.4-3.7-8.4-8.4V209.5c0-4.6,3.7-8.4,8.4-8.4h16.7v-16.7h-16.7c-13.8,0-25.1,11.2-25.1,25.1v133.6
				c0,13.8,11.2,25.1,25.1,25.1h167.1c13.8,0,25.1-11.2,25.1-25.1V209.5C364.6,195.7,353.4,184.5,339.5,184.5z"/>
		</g>
	</g>
	<g>
		<g>
			<path class="st0" d="M247.6,167.8c-18.5,0-33.4,15-33.4,33.4s15,33.4,33.4,33.4s33.4-15,33.4-33.4S266.1,167.8,247.6,167.8z
				 M247.6,217.9c-9.2,0-16.7-7.5-16.7-16.7s7.5-16.7,16.7-16.7c9.2,0,16.7,7.5,16.7,16.7C264.4,210.4,256.9,217.9,247.6,217.9z"/>
		</g>
	</g>
</g>
</svg>
