<?xml version="1.0" encoding="utf-8"?>
<!-- Generator: Adobe Illustrator 19.2.0, SVG Export Plug-In . SVG Version: 6.00 Build 0)  -->
<svg version="1.1" id="Layer_1" xmlns="http://www.w3.org/2000/svg" xmlns:xlink="http://www.w3.org/1999/xlink" x="0px" y="0px"
	 viewBox="0 0 512 512" style="enable-background:new 0 0 512 512;" xml:space="preserve">
<style type="text/css">
	.st0{fill:#556068;}
	.st1{fill:none;stroke:#556068;stroke-width:14;stroke-miterlimit:10;}
</style>
<g>
	<path class="st0" d="M287.2,436h-59.4c-3.7,0-6.8-3-6.8-6.8v-11.4c0-3.7,3-6.8,6.8-6.8h59.4c3.7,0,6.8,3,6.8,6.8v11.4
		C294,433,291,436,287.2,436z"/>
	<g>
		<g>
			<g>
				<path class="st0" d="M455.5,88.5L370.2,3.1c-2-2-4.7-3.1-7.5-3.1H85.3c-17.7,0-32,14.3-32,32v448c0,17.7,14.3,32,32,32h341.3
					c17.7,0,32-14.3,32-32V96C458.7,93.2,457.5,90.5,455.5,88.5z M437.3,480c0,5.9-4.8,10.7-10.7,10.7H85.3
					c-5.9,0-10.7-4.8-10.7-10.7V32c0-5.9,4.8-10.7,10.7-10.7h272.9l79.1,79.1L437.3,480L437.3,480z"/>
			</g>
		</g>
		<g>
			<g>
				<path class="st0" d="M384,85.3c-5.9,0-10.7-4.8-10.7-10.7v-64H352v64c0,17.7,14.3,32,32,32h21.3V85.3H384z"/>
			</g>
		</g>
	</g>
	<path class="st1" d="M365.8,164H146.2c-4.3,0-7.7-3.5-7.7-7.7v-13.5c0-4.3,3.5-7.7,7.7-7.7h219.5c4.3,0,7.7,3.5,7.7,7.7v13.5
		C373.5,160.5,370,164,365.8,164z"/>
	<path class="st1" d="M365.7,226H146.3c-4.3,0-7.8-3.5-7.8-7.8v-13.4c0-4.3,3.5-7.8,7.8-7.8h219.4c4.3,0,7.8,3.5,7.8,7.8v13.4
		C373.5,222.5,370,226,365.7,226z"/>
	<path class="st1" d="M364.7,381.6H147.3c-4.9,0-8.8-4-8.8-8.8V268.2c0-4.9,4-8.8,8.8-8.8h217.3c4.9,0,8.8,4,8.8,8.8v104.6
		C373.5,377.7,369.5,381.6,364.7,381.6z"/>
</g>
</svg>
