<?xml version="1.0" encoding="utf-8"?>
<!-- Generator: Adobe Illustrator 19.2.0, SVG Export Plug-In . SVG Version: 6.00 Build 0)  -->
<svg version="1.1" id="Capa_1" xmlns="http://www.w3.org/2000/svg" xmlns:xlink="http://www.w3.org/1999/xlink" x="0px" y="0px"
	 viewBox="0 0 512 512" style="enable-background:new 0 0 512 512;" xml:space="preserve">
<style type="text/css">
	.st0{fill:#556068;}
</style>
<g>
	<g>
		<path class="st0" d="M455.5,88.5L370.2,3.1c-2-2-4.7-3.1-7.5-3.1H85.3c-17.7,0-32,14.3-32,32v448c0,17.7,14.3,32,32,32h341.3
			c17.7,0,32-14.3,32-32V96C458.7,93.2,457.5,90.5,455.5,88.5z M437.3,480c0,5.9-4.8,10.7-10.7,10.7H85.3c-5.9,0-10.7-4.8-10.7-10.7
			V32c0-5.9,4.8-10.7,10.7-10.7h272.9l79.1,79.1L437.3,480L437.3,480z"/>
	</g>
</g>
<g>
	<g>
		<path class="st0" d="M384,85.3c-5.9,0-10.7-4.8-10.7-10.7v-64H352v64c0,17.7,14.3,32,32,32h21.3V85.3H384z"/>
	</g>
</g>
<g>
	<g>
		<g>
			<path class="st0" d="M170.5,169.5h-57c-5.2,0-9.5,4.3-9.5,9.5v57c0,5.2,4.3,9.5,9.5,9.5h57c5.2,0,9.5-4.3,9.5-9.5v-57
				C180,173.8,175.7,169.5,170.5,169.5z M161,226.5h-38v-38h38V226.5z"/>
		</g>
	</g>
	<g>
		<g>
			<path class="st0" d="M170.5,274h-57c-5.2,0-9.5,4.3-9.5,9.5v57c0,5.2,4.3,9.5,9.5,9.5h57c5.2,0,9.5-4.3,9.5-9.5v-57
				C180,278.3,175.7,274,170.5,274z M161,331h-38v-38h38V331z"/>
		</g>
	</g>
	<g>
		<g>
			<path class="st0" d="M170.5,378.5h-57c-5.2,0-9.5,4.3-9.5,9.5v57c0,5.2,4.3,9.5,9.5,9.5h57c5.2,0,9.5-4.3,9.5-9.5v-57
				C180,382.8,175.7,378.5,170.5,378.5z M161,435.5h-38v-38h38V435.5z"/>
		</g>
	</g>
	<g>
		<g>
			<rect x="218" y="179" class="st0" width="57" height="19"/>
		</g>
	</g>
	<g>
		<g>
			<rect x="218" y="217" class="st0" width="190" height="19"/>
		</g>
	</g>
	<g>
		<g>
			<rect x="218" y="283.5" class="st0" width="57" height="19"/>
		</g>
	</g>
	<g>
		<g>
			<rect x="218" y="321.5" class="st0" width="190" height="19"/>
		</g>
	</g>
	<g>
		<g>
			<rect x="218" y="388" class="st0" width="57" height="19"/>
		</g>
	</g>
	<g>
		<g>
			<rect x="218" y="426" class="st0" width="190" height="19"/>
		</g>
	</g>
</g>
<g>
	<g>
		<rect x="109.3" y="66" class="st0" width="106.7" height="21.3"/>
	</g>
</g>
<g>
	<g>
		<rect x="109.3" y="108.7" class="st0" width="21.3" height="21.3"/>
	</g>
</g>
<g>
	<g>
		<rect x="152" y="108.7" class="st0" width="21.3" height="21.3"/>
	</g>
</g>
</svg>
