<?xml version="1.0" encoding="utf-8"?>
<!-- Generator: Adobe Illustrator 19.2.0, SVG Export Plug-In . SVG Version: 6.00 Build 0)  -->
<svg version="1.1" id="Capa_1" xmlns="http://www.w3.org/2000/svg" xmlns:xlink="http://www.w3.org/1999/xlink" x="0px" y="0px"
	 viewBox="0 0 512 512" style="enable-background:new 0 0 512 512;" xml:space="preserve">
<style type="text/css">
	.st0{fill:#556068;}
</style>
<g>
	<g>
		<rect x="117.3" y="64" class="st0" width="106.7" height="21.3"/>
	</g>
</g>
<g>
	<g>
		<rect x="117.3" y="106.7" class="st0" width="21.3" height="21.3"/>
	</g>
</g>
<g>
	<g>
		<rect x="160" y="106.7" class="st0" width="21.3" height="21.3"/>
	</g>
</g>
<g>
	<g>
		<g>
			<path class="st0" d="M455.5,88.5L370.2,3.1c-2-2-4.7-3.1-7.5-3.1H85.3c-17.7,0-32,14.3-32,32v448c0,17.7,14.3,32,32,32h341.3
				c17.7,0,32-14.3,32-32V96C458.7,93.2,457.5,90.5,455.5,88.5z M437.3,480c0,5.9-4.8,10.7-10.7,10.7H85.3
				c-5.9,0-10.7-4.8-10.7-10.7V32c0-5.9,4.8-10.7,10.7-10.7h272.9l79.1,79.1L437.3,480L437.3,480z"/>
		</g>
	</g>
	<g>
		<g>
			<path class="st0" d="M384,85.3c-5.9,0-10.7-4.8-10.7-10.7v-64H352v64c0,17.7,14.3,32,32,32h21.3V85.3H384z"/>
		</g>
	</g>
</g>
<g>
	<g>
		<rect x="117.3" y="416" class="st0" width="277.3" height="21.3"/>
	</g>
</g>
<g>
	<g>
		<g>
			<path class="st0" d="M274,159.2c-1.4-1.5-3.4-2.4-5.5-2.5l0,0l-45.9-2.4c-2.8-0.1-5.2,2-5.4,4.8s2,5.2,4.8,5.4l35.1,1.8
				l-104.8,74.2c-2.3,1.6-2.9,4.8-1.2,7.1c1.6,2.3,4.8,2.9,7.1,1.2l106.2-75.1l-6,36.1c-0.5,2.8,1.4,5.4,4.2,5.9
				c2.8,0.5,5.4-1.4,5.9-4.2l7.6-45.3l0,0c0.1-0.5,0.1-0.9,0.1-1.4C276.2,162.7,275.4,160.7,274,159.2z"/>
		</g>
	</g>
	<g>
		<g>
			<path class="st0" d="M151.9,328.3H128c-4.7,0-8.5,3.8-8.5,8.5v23.9c0,4.7,3.8,8.5,8.5,8.5h23.9c4.7,0,8.5-3.8,8.5-8.5v-23.9
				C160.4,332.1,156.6,328.3,151.9,328.3z M150.1,359h-20.5v-20.5h20.5V359z"/>
		</g>
	</g>
	<g>
		<g>
			<path class="st0" d="M209.9,294.2H186c-4.7,0-8.5,3.8-8.5,8.5v58c0,4.7,3.8,8.5,8.5,8.5h23.9c4.7,0,8.5-3.8,8.5-8.5v-58
				C218.4,298,214.6,294.2,209.9,294.2z M208.2,359h-20.5v-54.6h20.5V359z"/>
		</g>
	</g>
	<g>
		<g>
			<path class="st0" d="M268,256.6h-24c-4.7,0-8.5,3.8-8.5,8.5v95.6c0,4.7,3.8,8.5,8.5,8.5h24c4.7,0,8.5-3.8,8.5-8.5v-95.6
				C276.5,260.4,272.7,256.6,268,256.6z M266.2,359h-20.5v-92.2h20.5V359z"/>
		</g>
	</g>
	<g>
		<g>
			<path class="st0" d="M326,215.7h-23.9c-4.7,0-8.5,3.8-8.5,8.5v136.5c0,4.7,3.8,8.5,8.5,8.5H326c4.7,0,8.5-3.8,8.5-8.5V224.2
				C334.5,219.5,330.7,215.7,326,215.7z M324.3,359h-20.5v-92.2h20.5V359z M324.3,256.6h-20.5v-30.7h20.5V256.6z"/>
		</g>
	</g>
	<g>
		<g>
			<path class="st0" d="M384,157.6h-23.9c-4.7,0-8.5,3.8-8.5,8.5v194.6c0,4.7,3.8,8.5,8.5,8.5H384c4.7,0,8.5-3.8,8.5-8.5V166.2
				C392.6,161.4,388.8,157.7,384,157.6z M382.3,359h-20.5V225.9h20.5V359z M382.3,215.7h-20.5v-47.8h20.5V215.7z"/>
		</g>
	</g>
</g>
</svg>
