<?xml version="1.0" encoding="utf-8"?>
<!-- Generator: Adobe Illustrator 19.2.0, SVG Export Plug-In . SVG Version: 6.00 Build 0)  -->
<svg version="1.1" id="Capa_1" xmlns="http://www.w3.org/2000/svg" xmlns:xlink="http://www.w3.org/1999/xlink" x="0px" y="0px"
	 viewBox="0 0 512 512" style="enable-background:new 0 0 512 512;" xml:space="preserve">
<style type="text/css">
	.st0{display:none;}
	.st1{display:inline;}
	.st2{fill:#556068;}
</style>
<g class="st0">
	<g class="st1">
		<g>
			<rect x="149.3" y="437.3" class="st2" width="213.3" height="21.3"/>
		</g>
	</g>
	<g class="st1">
		<g>
			<g>
				<rect x="191.9" y="384" class="st2" width="170.7" height="21.3"/>
			</g>
		</g>
		<g>
			<g>
				<rect x="149.3" y="384" class="st2" width="21.3" height="21.3"/>
			</g>
		</g>
	</g>
	<g class="st1">
		<g>
			<path class="st2" d="M327.4,251.6l-128.5-64.3c-2.3-1.1-4.7-1.7-7.2-1.7c-8.9,0-16.1,7.2-16.1,16.1v128.5
				c0,8.9,7.2,16.1,16.1,16.1c2.6,0,5-0.6,7.2-1.7l128.5-64.3c3.2-1.5,5.7-4.1,7.2-7.2C338.6,265.1,335.4,255.5,327.4,251.6z
				 M207.8,304.1v-76.5l76.5,38.3L207.8,304.1z"/>
		</g>
	</g>
	<g class="st1">
		<g>
			<g>
				<path class="st2" d="M455.5,88.5L370.2,3.1c-2-2-4.7-3.1-7.5-3.1H85.3c-17.7,0-32,14.3-32,32v448c0,17.7,14.3,32,32,32h341.3
					c17.7,0,32-14.3,32-32V96C458.7,93.2,457.5,90.5,455.5,88.5z M437.3,480c0,5.9-4.8,10.7-10.7,10.7H85.3
					c-5.9,0-10.7-4.8-10.7-10.7V32c0-5.9,4.8-10.7,10.7-10.7h272.9l79.1,79.1L437.3,480L437.3,480z"/>
			</g>
		</g>
		<g>
			<g>
				<path class="st2" d="M384,85.3c-5.9,0-10.7-4.8-10.7-10.7v-64H352v64c0,17.7,14.3,32,32,32h21.3V85.3H384z"/>
			</g>
		</g>
	</g>
	<g class="st1">
		<g>
			<g>
				<rect x="139.3" y="86" class="st2" width="106.7" height="21.3"/>
			</g>
		</g>
		<g>
			<g>
				<rect x="139.3" y="128.7" class="st2" width="21.3" height="21.3"/>
			</g>
		</g>
		<g>
			<g>
				<rect x="182" y="128.7" class="st2" width="21.3" height="21.3"/>
			</g>
		</g>
	</g>
</g>
<g>
	<path class="st2" d="M142.3,388.6h227.5v19H142.3V388.6z"/>
	<path class="st2" d="M227.6,330.7h142.2v21H227.6V330.7z"/>
	<path class="st2" d="M142.3,330.7h66.3v21h-66.3V330.7z"/>
	<g>
		<g>
			<g>
				<rect x="142.3" y="104.4" class="st2" width="106.7" height="21.3"/>
			</g>
		</g>
		<g>
			<g>
				<rect x="142.3" y="147.1" class="st2" width="21.3" height="21.3"/>
			</g>
		</g>
		<g>
			<g>
				<rect x="185" y="147.1" class="st2" width="21.3" height="21.3"/>
			</g>
		</g>
	</g>
	<path class="st2" d="M142.3,217H294v21H142.3V217z"/>
	<path class="st2" d="M312.9,217h56.9v21h-56.9V217z"/>
	<path class="st2" d="M142.3,273.9h227.5v21H142.3V273.9z"/>
	<g>
		<g>
			<g>
				<path class="st2" d="M455.5,88.5L370.2,3.1c-2-2-4.7-3.1-7.5-3.1H85.3c-17.7,0-32,14.3-32,32v448c0,17.7,14.3,32,32,32h341.3
					c17.7,0,32-14.3,32-32V96C458.7,93.2,457.5,90.5,455.5,88.5z M437.3,480c0,5.9-4.8,10.7-10.7,10.7H85.3
					c-5.9,0-10.7-4.8-10.7-10.7V32c0-5.9,4.8-10.7,10.7-10.7h272.9l79.1,79.1L437.3,480L437.3,480z"/>
			</g>
		</g>
		<g>
			<g>
				<path class="st2" d="M384,85.3c-5.9,0-10.7-4.8-10.7-10.7v-64H352v64c0,17.7,14.3,32,32,32h21.3V85.3H384z"/>
			</g>
		</g>
	</g>
</g>
</svg>
