<?xml version="1.0" encoding="utf-8"?>
<!-- Generator: Adobe Illustrator 19.2.0, SVG Export Plug-In . SVG Version: 6.00 Build 0)  -->
<svg version="1.1" id="Capa_1" xmlns="http://www.w3.org/2000/svg" xmlns:xlink="http://www.w3.org/1999/xlink" x="0px" y="0px"
	 viewBox="0 0 512 512" style="enable-background:new 0 0 512 512;" xml:space="preserve">
<style type="text/css">
	.st0{fill:#556068;}
</style>
<g>
	<g>
		<rect x="149.3" y="437.3" class="st0" width="213.3" height="21.3"/>
	</g>
</g>
<g>
	<g>
		<g>
			<rect x="191.9" y="384" class="st0" width="170.7" height="21.3"/>
		</g>
	</g>
	<g>
		<g>
			<rect x="149.3" y="384" class="st0" width="21.3" height="21.3"/>
		</g>
	</g>
</g>
<g>
	<g>
		<path class="st0" d="M327.4,251.6l-128.5-64.3c-2.3-1.1-4.7-1.7-7.2-1.7c-8.9,0-16.1,7.2-16.1,16.1v128.5
			c0,8.9,7.2,16.1,16.1,16.1c2.6,0,5-0.6,7.2-1.7l128.5-64.3c3.2-1.5,5.7-4.1,7.2-7.2C338.6,265.1,335.4,255.5,327.4,251.6z
			 M207.8,304.1v-76.5l76.5,38.3L207.8,304.1z"/>
	</g>
</g>
<g>
	<g>
		<g>
			<path class="st0" d="M455.5,88.5L370.2,3.1c-2-2-4.7-3.1-7.5-3.1H85.3c-17.7,0-32,14.3-32,32v448c0,17.7,14.3,32,32,32h341.3
				c17.7,0,32-14.3,32-32V96C458.7,93.2,457.5,90.5,455.5,88.5z M437.3,480c0,5.9-4.8,10.7-10.7,10.7H85.3
				c-5.9,0-10.7-4.8-10.7-10.7V32c0-5.9,4.8-10.7,10.7-10.7h272.9l79.1,79.1L437.3,480L437.3,480z"/>
		</g>
	</g>
	<g>
		<g>
			<path class="st0" d="M384,85.3c-5.9,0-10.7-4.8-10.7-10.7v-64H352v64c0,17.7,14.3,32,32,32h21.3V85.3H384z"/>
		</g>
	</g>
</g>
<g>
	<g>
		<g>
			<rect x="139.3" y="86" class="st0" width="106.7" height="21.3"/>
		</g>
	</g>
	<g>
		<g>
			<rect x="139.3" y="128.7" class="st0" width="21.3" height="21.3"/>
		</g>
	</g>
	<g>
		<g>
			<rect x="182" y="128.7" class="st0" width="21.3" height="21.3"/>
		</g>
	</g>
</g>
</svg>
