<svg viewBox="0 0 12 14" fill="none" xmlns="http://www.w3.org/2000/svg">
<path fill-rule="evenodd" clip-rule="evenodd" d="M3.27118 0.3887C3.2712 0.285708 3.31211 0.186938 3.38492 0.114094C3.45773 0.0412498 3.55648 0.000291231 3.65947 0.000218755L7.54212 0C7.64514 0.000238825 7.74386 0.0413108 7.81664 0.114214C7.88943 0.187116 7.93034 0.285902 7.93041 0.388919V1.34917H3.27118V0.3887ZM9.65502 13.4441C9.64512 13.5955 9.57772 13.7374 9.46662 13.8407C9.35552 13.9441 9.20912 14.001 9.05738 14H2.09958C1.94789 13.9996 1.80197 13.9418 1.69113 13.8382C1.58028 13.7347 1.51271 13.593 1.502 13.4417L0.906602 4.73205H10.2905L9.65516 13.444L9.65502 13.4441ZM11.2018 3.94322H0V3.04086C0.000166527 2.80153 0.0952985 2.57206 0.264509 2.40281C0.433719 2.23356 0.663176 2.13838 0.902501 2.13816L10.2992 2.13786C10.5385 2.13823 10.7679 2.2335 10.9371 2.40276C11.1062 2.57203 11.2014 2.80147 11.2016 3.04078V3.94314L11.2018 3.94322ZM3.79726 11.9237C3.79726 11.9755 3.80746 12.0268 3.82728 12.0746C3.84709 12.1225 3.87614 12.1659 3.91276 12.2026C3.94938 12.2392 3.99286 12.2682 4.0407 12.288C4.08855 12.3079 4.13983 12.3181 4.19162 12.3181C4.24341 12.3181 4.29469 12.3079 4.34253 12.288C4.39038 12.2682 4.43385 12.2392 4.47047 12.2026C4.50709 12.1659 4.53614 12.1225 4.55596 12.0746C4.57578 12.0268 4.58598 11.9755 4.58598 11.9237V6.39339C4.58515 6.28938 4.54326 6.18992 4.46944 6.11665C4.39561 6.04339 4.29583 6.00226 4.19182 6.00222C4.08781 6.00219 3.988 6.04325 3.91413 6.11646C3.84025 6.18967 3.7983 6.28911 3.79739 6.39311V11.9237H3.79726ZM6.61099 11.9237C6.61099 12.0283 6.65255 12.1286 6.72651 12.2026C6.80048 12.2766 6.9008 12.3181 7.00541 12.3181C7.11001 12.3181 7.21033 12.2766 7.2843 12.2026C7.35827 12.1286 7.39982 12.0283 7.39982 11.9237V6.39339C7.39899 6.28937 7.3571 6.18989 7.28326 6.11661C7.20943 6.04334 7.10963 6.00221 7.00561 6.00217C6.90159 6.00213 6.80176 6.0432 6.72788 6.11642C6.65399 6.18964 6.61203 6.28909 6.61113 6.39311L6.61099 11.9237Z" fill="#FF5E87"/>
</svg>
