<svg width="14" height="14" viewBox="0 0 14 14" fill="none" xmlns="http://www.w3.org/2000/svg">
<g clip-path="url(#clip0_153_2333)">
<path d="M0.0274141 13.4641C-0.0136016 13.6063 0.027414 13.7622 0.131235 13.8661C0.207819 13.9426 0.314523 13.9864 0.421121 13.9864C0.45936 13.9864 0.497705 13.9809 0.533274 13.9699L4.35584 12.8789L1.11839 9.64148L0.0274141 13.4641Z" fill="#173B32"/>
<path d="M0.421899 14C0.309747 14 0.203149 13.9563 0.123895 13.877C0.0145197 13.7676 -0.026496 13.609 0.01719 13.4614L1.11639 9.61682L4.38674 12.8872L0.536721 13.9836C0.498483 13.9946 0.460137 14 0.421899 14ZM1.12739 9.66606L0.0418634 13.4668C0.00351808 13.6063 0.0418634 13.754 0.143014 13.8551C0.216821 13.9289 0.317971 13.9699 0.421899 13.9699C0.457467 13.9699 0.495706 13.9645 0.531274 13.9536L4.33206 12.8681L1.12739 9.66606Z" fill="#173B32"/>
<path d="M13.627 2.11092L11.8906 0.374588C11.6555 0.142166 11.3493 0.0136719 11.0184 0.0136719C10.6903 0.0136719 10.3813 0.142166 10.1488 0.371918L9.2793 1.24136L12.7547 4.7168L13.6243 3.84724C13.8567 3.61482 13.9824 3.30582 13.9824 2.97769C13.9852 2.64957 13.8567 2.34334 13.627 2.11092Z" fill="#173B32"/>
<path d="M12.7563 4.73592L9.26172 1.24136L10.1394 0.363693C10.3746 0.128494 10.6863 0 11.0172 0C11.3507 0 11.6625 0.128494 11.8949 0.363693L13.6313 2.10002C13.8664 2.33511 13.9949 2.6469 13.9949 2.97769C13.9949 3.31137 13.8664 3.62305 13.6313 3.85547L12.7563 4.73592ZM9.29996 1.24136L12.7563 4.69768L13.6148 3.83902C13.8445 3.60938 13.9703 3.30582 13.9703 2.98047C13.9703 2.65512 13.8445 2.35156 13.6148 2.12192L11.8785 0.382812C11.6488 0.153168 11.3425 0.0273438 11.0172 0.0273438C10.6918 0.0273438 10.3883 0.153168 10.1586 0.382812L9.29996 1.24136Z" fill="#173B32"/>
<path d="M1.58008 8.94182L8.70099 1.8208L12.1774 5.2972L5.05647 12.4182L1.58008 8.94182Z" fill="#173B32"/>
<path d="M5.05582 12.4386L1.55859 8.94138L8.70076 1.80188L12.1953 5.29643L5.05582 12.4386ZM1.59961 8.94138L5.05582 12.3976L12.157 5.29643L8.70076 1.84023L1.59961 8.94138Z" fill="#173B32"/>
</g>
<defs>
<clipPath id="clip0_153_2333">
<rect width="14" height="14" fill="white"/>
</clipPath>
</defs>
</svg>
