<?xml version="1.0" encoding="utf-8"?>
<!-- Generator: Adobe Illustrator 25.2.1, SVG Export Plug-In . SVG Version: 6.00 Build 0)  -->
<svg version="1.1" id="Layer_1" xmlns="http://www.w3.org/2000/svg" xmlns:xlink="http://www.w3.org/1999/xlink" x="0px" y="0px"
	 viewBox="0 0 24 24" style="enable-background:new 0 0 24 24;" xml:space="preserve">
<style type="text/css">
	.st0{fill:#F44336;}
</style>
<path class="st0" d="M18.8,9.2c-0.3-0.3-0.9-0.4-1.2-0.1c-0.1,0,0,0-0.8,0.8l2,2l0.7-0.7c0.4-0.4,0.4-0.9,0-1.3L18.8,9.2z"/>
<path class="st0" d="M12.6,14.1l-1.2,2.6c-0.1,0.2,0,0.4,0.1,0.5s0.3,0.2,0.5,0.1l2.6-1.2c0.1,0-0.2,0.2,3.6-3.5l-2-2
	C12.4,14.3,12.6,14,12.6,14.1L12.6,14.1z"/>
<g>
	<path class="st0" d="M15.3,16.7c-0.1,0.1-0.2,0.2-0.4,0.3l-2.6,1.2c-0.5,0.2-1.1,0.1-1.5-0.3c-0.4-0.4-0.5-1-0.3-1.5l1.2-2.6
		c0.1-0.1,0.2-0.3,0.3-0.4l3.8-3.8V5.7c0-0.7-0.6-1.4-1.4-1.4H5.7C5,4.3,4.3,5,4.3,5.7v12.7c0,0.7,0.6,1.4,1.4,1.4h8.8
		c0.7,0,1.4-0.6,1.4-1.4v-2.3L15.3,16.7z M6.8,7.3h6.8c0.2,0,0.5,0.2,0.5,0.5s-0.2,0.5-0.5,0.5H6.8C6.5,8.2,6.3,8,6.3,7.7
		S6.5,7.3,6.8,7.3z M6.8,9.7h5.3c0.2,0,0.5,0.2,0.5,0.5c0,0.2-0.2,0.5-0.5,0.5H6.8c-0.2,0-0.5-0.2-0.5-0.5S6.5,9.7,6.8,9.7z M6.8,12
		h3.9c0.2,0,0.5,0.2,0.5,0.5c0,0.2-0.2,0.5-0.5,0.5H6.8c-0.3,0-0.5-0.2-0.5-0.5C6.3,12.3,6.5,12,6.8,12z M7,18.7
		c-1.3,0-2.4-1.1-2.4-2.4c0-1.3,1.1-2.4,2.4-2.4c1.4,0,2.4,1.1,2.4,2.4C9.4,17.6,8.3,18.7,7,18.7z"/>
	<path class="st0" d="M8,15.6l-1.1,1.1l-0.6-0.6C6.2,16,6.2,16,6,16.2s-0.1,0.1,0,0.3l0.7,0.7h0.1H7l1.3-1.3c0.1-0.1,0.1-0.3,0-0.3
		C8.1,15.5,8.1,15.5,8,15.6z"/>
</g>
</svg>
