<?xml version="1.0" encoding="utf-8"?>
<!-- Generator: Adobe Illustrator 25.2.1, SVG Export Plug-In . SVG Version: 6.00 Build 0)  -->
<svg version="1.1" id="Layer_1" xmlns="http://www.w3.org/2000/svg" xmlns:xlink="http://www.w3.org/1999/xlink" x="0px" y="0px"
	 viewBox="0 0 20 20" style="enable-background:new 0 0 20 20;" xml:space="preserve">
<style type="text/css">
	.st0{fill:#FFFFFF;}
</style>
<g>
	<g>
		<path class="st0" d="M14.1,3c-0.2-0.2-0.5-0.2-0.7,0c0,0,0,0-0.5,0.5l1.2,1.2l0.4-0.4c0.2-0.2,0.2-0.6,0-0.8L14.1,3z"/>
		<path class="st0" d="M10.3,6L9.6,7.6c0,0.1,0,0.2,0.1,0.3C9.7,8,9.9,8,10,8l1.6-0.7c0.1,0-0.1,0.1,2.2-2.1l-1.2-1.2
			C10.2,6.1,10.4,6,10.3,6L10.3,6z"/>
	</g>
	<g>
		<path class="st0" d="M9.8,5.8c0-0.1,0.1-0.2,0.2-0.2l2.4-2.4V0.8C12.4,0.4,12,0,11.5,0H6.1C5.6,0,5.3,0.4,5.3,0.8v7.8
			c0,0.5,0.4,0.8,0.8,0.8h5.4c0.5,0,0.8-0.4,0.8-0.8V7.2L12,7.6c-0.1,0.1-0.1,0.1-0.2,0.2l-1.6,0.7C9.9,8.6,9.5,8.6,9.3,8.3
			C9,8.1,8.9,7.7,9.1,7.4L9.8,5.8z M6.7,1.8h4.1c0.2,0,0.3,0.1,0.3,0.3S11,2.4,10.9,2.4H6.7c-0.2,0-0.3-0.1-0.3-0.3S6.6,1.8,6.7,1.8
			z M6.7,3.3H10c0.2,0,0.3,0.1,0.3,0.3c0,0.2-0.1,0.3-0.3,0.3H6.7c-0.2,0-0.3-0.1-0.3-0.3C6.5,3.4,6.6,3.3,6.7,3.3z M7.3,9.1
			c-0.9,0-1.6-0.7-1.6-1.6c0-0.9,0.7-1.6,1.6-1.6c0.9,0,1.6,0.7,1.6,1.6C8.9,8.4,8.2,9.1,7.3,9.1z M6.7,5.3C6.6,5.3,6.5,5.2,6.5,5
			c0-0.2,0.1-0.3,0.3-0.3h2.4c0.2,0,0.3,0.1,0.3,0.3c0,0.2-0.1,0.3-0.3,0.3H6.7z"/>
		<path class="st0" d="M7.9,7L7.1,7.8L6.8,7.4c-0.1-0.1-0.1-0.1-0.2,0c-0.1,0.1-0.1,0.1,0,0.2L7,8.1c0,0,0.1,0,0.1,0s0.1,0,0.1,0
			l0.9-0.9C8.1,7.1,8.1,7,8.1,7C8,6.9,8,6.9,7.9,7z"/>
	</g>
</g>
</svg>
