<svg xmlns="http://www.w3.org/2000/svg" version="1.1" xmlns:xlink="http://www.w3.org/1999/xlink" xmlns:svgjs="http://svgjs.dev/svgjs" width="1440" height="560" preserveAspectRatio="none" viewBox="0 0 1440 560"><g mask="url(&quot;#SvgjsMask1000&quot;)" fill="none"><rect width="1440" height="560" x="0" y="0" fill="#0e2a47"></rect><path d="M -623.6154861081417,176 C -527.62,197.4 -335.62,264.6 -143.61548610814165,283 C 48.38,301.4 144.38,241.4 336.3845138918583,268 C 528.38,294.6 624.38,422.6 816.3845138918583,416 C 1008.38,409.4 1171.66,238.4 1296.3845138918584,235 C 1421.11,231.6 1411.28,366.2 1440,399" stroke="rgba(51, 121, 194, 0.58)" stroke-width="2"></path><path d="M -413.892627653679,204 C -317.89,236 -125.89,355.8 66.10737234632094,364 C 258.11,372.2 354.11,247.2 546.107372346321,245 C 738.11,242.8 834.11,373.2 1026.107372346321,353 C 1218.11,332.8 1423.33,141.8 1506.107372346321,144 C 1588.89,146.2 1453.22,320 1440,364" stroke="rgba(51, 121, 194, 0.58)" stroke-width="2"></path><path d="M -663.4439272790416,452 C -567.44,386.6 -375.44,122.8 -183.44392727904165,125 C 8.56,127.2 104.56,454.2 296.55607272095835,463 C 488.56,471.8 584.56,195.8 776.5560727209584,169 C 968.56,142.2 1123.87,351.6 1256.5560727209584,329 C 1389.24,306.4 1403.31,110.6 1440,56" stroke="rgba(51, 121, 194, 0.58)" stroke-width="2"></path><path d="M -135.86373501246175,76 C -39.86,152.8 152.14,435.4 344.13626498753825,460 C 536.14,484.6 632.14,222.6 824.1362649875382,199 C 1016.14,175.4 1112.14,341 1304.1362649875382,342 C 1496.14,343 1756.96,211.2 1784.1362649875382,204 C 1811.31,196.8 1508.83,285.6 1440,306" stroke="rgba(51, 121, 194, 0.58)" stroke-width="2"></path></g><defs><mask id="SvgjsMask1000"><rect width="1440" height="560" fill="#ffffff"></rect></mask></defs></svg>